<svg xmlns="http://www.w3.org/2000/svg" width="512" height="512" viewBox="0 0 60 60"><path fill="#28d18c" d="M58.522 20.518 31.513 52.3a1.983 1.983 0 0 1-3.026 0L1.478 20.518a2.013 2.013 0 0 1 .245-2.847L14.014 7.459A1.981 1.981 0 0 1 15.282 7h29.436a1.981 1.981 0 0 1 1.268.459l12.291 10.212a2.013 2.013 0 0 1 .245 2.847z"/><path fill="#3aefa1" d="M48 19 30 41 12 19l7-6h22z"/><path fill="#24a068" d="M30 41v12a1.98 1.98 0 0 1-1.51-.7L1.48 20.52A2.01 2.01 0 0 1 1.01 19H12z"/><path fill="#25b778" d="M45.38 7.12 41 13H19l-4.38-5.88a1.838 1.838 0 0 1 .66-.12h29.44a1.838 1.838 0 0 1 .66.12zm13.14 13.4L31.51 52.3A1.98 1.98 0 0 1 30 53V41l18-22h10.99a2.01 2.01 0 0 1-.47 1.52z"/><path fill="#71ffbe" d="M20 20a1 1 0 0 1-.707-1.707l2-2a1 1 0 0 1 1.414 1.414l-2 2A1 1 0 0 1 20 20zm3 3a1 1 0 0 1-.707-1.707l5-5a1 1 0 0 1 1.414 1.414l-5 5A1 1 0 0 1 23 23z"/></svg>